<?xml version="1.0" encoding="utf-8"?>
<!-- Generator: Adobe Illustrator 23.0.1, SVG Export Plug-In . SVG Version: 6.00 Build 0)  -->
<svg version="1.1" id="Layer_1" xmlns="http://www.w3.org/2000/svg" xmlns:xlink="http://www.w3.org/1999/xlink" x="0px" y="0px"
	 viewBox="0 0 384.5 236.4" style="enable-background:new 0 0 384.5 236.4;" xml:space="preserve">
<style type="text/css">
	.st0{fill:#FFFFFF;}
	.st1{clip-path:url(#SVGID_2_);}
	.st2{clip-path:url(#SVGID_4_);}
</style>
<polygon class="st0" points="272.2,138.6 272.2,46.2 192.2,0 112.2,46.2 112.2,138.6 192.2,184.7 "/>
<polygon class="st0" points="384.5,236.4 384.5,146.8 288.1,146.8 288.1,147.7 192.2,203.1 96.3,147.7 96.3,146.8 0,146.8 0,236.4 
	"/>
<g>
	<g>
		<defs>
			<rect id="SVGID_1_" x="140.7" y="40.7" width="103" height="103.3"/>
		</defs>
		<clipPath id="SVGID_2_">
			<use xlink:href="#SVGID_1_"  style="overflow:visible;"/>
		</clipPath>
		<path class="st1" d="M242.7,104c-3.1-4.1-6.2-4.1-13.7-0.2l-14.8,9.1c-2.1,1.2-6.7,1.5-11,1.5c0.9-1.5,0.5-3.4-1-5.7
			c-2.7-3.9-7.4-6.3-12.4-6.3h-6.7c-3.6,0-7-1-9.8-3.1c-6.2-4.6-15.9,0.4-20.6,3.4v-3.6h-12v44.6h12v-5.1H175c3.4,0,7-0.3,10.5-0.5
			l22.3-3.4c0.9,0,1.7-0.2,2.4-0.3c2.1-0.3,3.9-1.4,5.7-2.9l25.9-20.6C243.9,109.1,244.2,106,242.7,104L242.7,104z M149.3,140.3
			h-5.1v-37.8h5.1V140.3z M239.7,108.6l-26.1,20.2l-0.2,0.2c-1.2,1-2.4,1.7-3.8,1.9h-0.2c-0.7,0.2-1.2,0.2-1.9,0.2l-22.7,3.4
			c-3.3,0.5-6.7,0.7-10,0.7h-22.3v-28.3c4.1-2.9,13.7-8.4,18.5-4.6c3.3,2.4,7.6,3.8,11.8,3.8h6.7c3.9,0,7.5,1.7,9.8,5.1
			c0.7,1,0.9,2.1,0.7,2.4c-0.5,0.9-2.6,1.2-4.8,1.4h-17.3c-5.3,0-8.6,2.6-8.6,6.9c0,1,0.7,1.7,1.7,1.7c1,0,1.7-0.7,1.7-1.7
			c0-0.9,0-3.4,5.1-3.4h18.4c8.1,0.2,15.6,0,19.6-2.1l14.8-9.1c7.2-3.6,7.9-2.7,9.3-0.7C240.4,107.1,240.4,108.1,239.7,108.6
			L239.7,108.6z M239.7,108.6"/>
	</g>
	<path d="M154.1,95c0.3,0.3,0.9,0.7,1.4,0.7h73.4c0.7,0,1.2-0.3,1.4-0.9l6.2-8.6c0.3-0.5,0.5-1.2,0.2-1.7c-0.3-0.5-0.9-0.9-1.5-0.9
		h-3.5c-0.9-20.4-17.3-36.8-37.7-37.7v-1.8h3.4c1,0,1.7-0.7,1.7-1.7c0-1-0.7-1.7-1.7-1.7h-10.3c-1,0-1.7,0.7-1.7,1.7
		c0,1,0.7,1.7,1.7,1.7h3.4V46c-20.4,0.9-36.8,17.3-37.7,37.7h-3.5c-0.7,0-1.4,0.5-1.5,1c-0.2,0.5-0.2,1.2,0.2,1.7L154.1,95z
		 M192.2,49.4c19.4,0,35.2,15.3,36,34.3h-72.1C157.2,64.7,173,49.4,192.2,49.4L192.2,49.4z M154.5,87.1h77.2l-3.6,5.1h-71.7
		l-3.6-5.1H154.5z M154.5,87.1"/>
	<path d="M192.2,52.8c-11.5,0-22.3,6.2-28.3,16.3c-0.3,0.9-0.2,1.9,0.7,2.4c0.3,0.2,0.5,0.2,0.9,0.2c0.7,0,1.2-0.3,1.5-0.9
		c5.1-8.9,14.9-14.6,25.2-14.6c1,0,1.7-0.7,1.7-1.7C193.9,53.5,193.2,52.8,192.2,52.8L192.2,52.8z M192.2,52.8"/>
</g>
</svg>
