<?xml version="1.0" encoding="utf-8"?>
<!-- Generator: Adobe Illustrator 23.0.1, SVG Export Plug-In . SVG Version: 6.00 Build 0)  -->
<svg version="1.1" id="Layer_1" xmlns="http://www.w3.org/2000/svg" xmlns:xlink="http://www.w3.org/1999/xlink" x="0px" y="0px"
	 viewBox="0 0 384.5 236.4" style="enable-background:new 0 0 384.5 236.4;" xml:space="preserve">
<style type="text/css">
	.st0{fill:#FFFFFF;}
	.st1{clip-path:url(#SVGID_2_);}
	.st2{clip-path:url(#SVGID_4_);}
</style>
<polygon class="st0" points="272.2,138.6 272.2,46.2 192.2,0 112.2,46.2 112.2,138.6 192.2,184.7 "/>
<polygon class="st0" points="384.5,236.4 384.5,146.8 288.1,146.8 288.1,147.7 192.2,203.1 96.3,147.7 96.3,146.8 0,146.8 0,236.4 
	"/>
<g>
	<path d="M170.7,90.2c0-1.2-1-2.1-2.1-2.1c-1.2,0-2.1,1-2.1,2.1c0,5.6,6.2,13.4,6.9,14.2c0.4,0.5,1,0.8,1.7,0.8c0.5,0,1-0.2,1.4-0.5
		c0.9-0.8,1-2.1,0.3-3C174.4,98.9,170.7,93.3,170.7,90.2L170.7,90.2z M170.7,90.2"/>
	<path d="M215.8,88c-1.2,0-2.1,1-2.1,2.1c0,3.1-3.6,8.7-5.9,11.5c-0.7,0.9-0.6,2.3,0.3,3c0.4,0.3,0.9,0.5,1.4,0.5
		c0.6,0,1.2-0.3,1.7-0.8c0.7-0.9,6.9-8.6,6.9-14.2C217.9,89,216.9,88,215.8,88L215.8,88z M215.8,88"/>
	<path d="M192.2,88c-1.2,0-2.1,1-2.1,2.1V103c0,1.2,1,2.1,2.1,2.1c1.2,0,2.1-1,2.1-2.1V90.2C194.3,89,193.3,88,192.2,88L192.2,88z
		 M192.2,88"/>
	<path d="M215.8,53.7c-1.3,0-2.7,0.2-4.1,0.4c-4.7-5.5-11.7-9-19.5-9c-7.8,0-14.8,3.5-19.5,9c-1.4-0.3-2.8-0.4-4.1-0.4
		c-13,0-23.6,10.6-23.6,23.6c0,8.9,5,17,12.9,21l0,32.4c0,2.3,0.9,4.5,2.6,6.2c1.7,1.7,3.9,2.6,6.2,2.6h51.1c4.8,0,8.8-3.9,8.8-8.8
		V98.3c7.9-4,12.9-12.1,12.9-21C239.3,64.3,228.8,53.7,215.8,53.7L215.8,53.7z M222.2,130.8c0,2.5-2,4.5-4.5,4.5h-51.1
		c-1.2,0-2.3-0.5-3.2-1.3c-0.8-0.8-1.3-2-1.3-3.2l0-8.4h60V130.8z M223.5,95c-0.1,0-0.2,0.1-0.3,0.2c-0.3,0.2-0.5,0.4-0.7,0.6
		c-0.2,0.3-0.3,0.5-0.3,0.9c0,0.1,0,0.2,0,0.4v21.1h-60l0-21c0-0.1,0-0.2,0-0.4c0-0.3-0.2-0.6-0.3-0.9c-0.2-0.2-0.4-0.5-0.6-0.6
		c-0.1-0.1-0.2-0.1-0.3-0.2c-7-3.1-11.6-10-11.6-17.7c0-10.6,8.7-19.3,19.3-19.3c0.4,0,0.9,0.1,1.3,0.1c-2.2,3.8-3.4,8.1-3.4,12.8
		c0,1.2,1,2.1,2.1,2.1c1.2,0,2.1-1,2.1-2.1c0-11.8,9.6-21.4,21.5-21.4c11.8,0,21.4,9.6,21.4,21.4c0,1.2,1,2.1,2.1,2.1
		c1.2,0,2.1-1,2.1-2.1c0-4.7-1.3-9-3.4-12.8c0.4,0,0.9-0.1,1.3-0.1c10.6,0,19.3,8.7,19.3,19.3C235.1,84.9,230.5,91.9,223.5,95
		L223.5,95z M223.5,95"/>
</g>
</svg>
