<?xml version="1.0" encoding="utf-8"?>
<!-- Generator: Adobe Illustrator 23.0.1, SVG Export Plug-In . SVG Version: 6.00 Build 0)  -->
<svg version="1.1" id="Layer_1" xmlns="http://www.w3.org/2000/svg" xmlns:xlink="http://www.w3.org/1999/xlink" x="0px" y="0px"
	 viewBox="0 0 384.5 236.4" style="enable-background:new 0 0 384.5 236.4;" xml:space="preserve">
<style type="text/css">
	.st0{fill:#FFFFFF;}
	.st1{clip-path:url(#SVGID_2_);}
	.st2{clip-path:url(#SVGID_4_);}
</style>
<polygon class="st0" points="272.2,138.6 272.2,46.2 192.2,0 112.2,46.2 112.2,138.6 192.2,184.7 "/>
<polygon class="st0" points="384.5,236.4 384.5,146.8 288.1,146.8 288.1,147.7 192.2,203.1 96.3,147.7 96.3,146.8 0,146.8 0,236.4 
	"/>
<g>
	<g>
		<defs>
			<rect id="SVGID_3_" x="167.3" y="37.6" width="49.9" height="110"/>
		</defs>
		<clipPath id="SVGID_2_">
			<use xlink:href="#SVGID_3_"  style="overflow:visible;"/>
		</clipPath>
		<path class="st1" d="M199.4,103.4c9.3-6,15.6-15.8,17.2-26.7c0.8-5,0.5-10.1-0.7-15.1l-5.4-22.4c-0.2-1-1.1-1.6-2.1-1.6h-32.5
			c-1,0-1.9,0.7-2.1,1.6l-5.4,22.4c-1.2,5-1.4,10-0.7,15.1c1.7,10.9,8,20.7,17.2,26.7l5.1,3.3v28.5l-16.7,8.4
			c-0.9,0.4-1.4,1.4-1.1,2.4c0.2,1,1.1,1.7,2.1,1.7h35.8c1,0,1.9-0.7,2.1-1.7c0.2-1-0.2-2-1.1-2.4l-16.7-8.4v-28.5L199.4,103.4z
			 M177.6,41.9h29.2l4.4,18.1h-38L177.6,41.9z M172,76.1c-0.6-3.9-0.5-7.9,0.2-11.7h40c0.7,3.9,0.8,7.8,0.2,11.7
			c-1.5,9.7-7.1,18.4-15.3,23.7l-4.9,3.2l-4.9-3.2C179.1,94.5,173.5,85.8,172,76.1L172,76.1z M183.4,143.4l8.8-4.4l8.8,4.4H183.4z
			 M183.4,143.4"/>
	</g>
	<path d="M196.9,94c0.5,0,1-0.2,1.4-0.5c4.6-4.1,7.9-9.5,9.3-15.5c0.3-1.2-0.4-2.3-1.6-2.6c-1.2-0.3-2.3,0.4-2.6,1.6
		c-1.3,5.2-4,9.7-8,13.3c-0.9,0.8-1,2.1-0.2,3C195.7,93.8,196.3,94,196.9,94L196.9,94z M196.9,94"/>
	<path d="M206.3,71.5c0.6,0,1.1-0.2,1.5-0.6c0.4-0.4,0.6-1,0.6-1.5c0-0.6-0.2-1.1-0.6-1.5c-0.4-0.4-1-0.6-1.5-0.6
		c-0.6,0-1.1,0.2-1.5,0.6c-0.4,0.4-0.6,1-0.6,1.5c0,0.6,0.2,1.1,0.6,1.5C205.2,71.3,205.7,71.5,206.3,71.5L206.3,71.5z M206.3,71.5"
		/>
</g>
</svg>
